#!OML:ASF Y:\EmotionMaleHayes\Project 1\Capture day 1\Session 1\Male1.ASF
:FULLY-SPECIFIED
:DEGREES
49
root -28.1837 17.1238 0.997779 28.2645 86.25 26.406
lowerback 3.79128 1.65974 -4.22534
upperback 0.913452 2.05705 -0.301253
thorax -1.32252 1.04597 1.95527
lowerneck -22.3761 3.12051 4.47035
upperneck 23.4719 3.70169 -2.61596
head 11.4984 1.78961 -1.09429
rclavicle 1.61513e-016 6.95746e-015
rhumerus -34.9726 5.95384 -89.1696
rradius 32.3691
rwrist 1.31327
rhand -13.052 -28.1124
rfingers 7.12502
rthumb 13.0431 -57.6846
lclavicle 1.61513e-016 6.95746e-015
lhumerus -32.2175 -12.2226 92.5868
lradius 26.0202
lwrist -10.717
lhand -20.3294 -27.8345
lfingers 7.12502
lthumb 6.02182 2.05988
rfemur 6.58121 -7.06359 16.2443
rtibia 2.90474
rfoot -15.2583 -3.14682
rtoes -2.34958
lfemur 9.01017 3.59991 -19.0239
ltibia -1.45897
lfoot -11.3038 10.0311
ltoes -3.84282
50
root -28.1865 17.1252 0.997205 28.8702 86.2587 27.0368
lowerback 3.87586 1.64701 -4.25164
upperback 0.894034 2.03418 -0.307546
thorax -1.38899 1.03619 1.9619
lowerneck -22.2849 3.07844 4.42198
upperneck 23.4369 3.66383 -2.61672
head 11.465 1.76919 -1.09368
rclavicle -1.32689e-014 3.27995e-015
rhumerus -35.0144 5.97489 -89.1728
rradius 32.3842
rwrist 1.3181
rhand -13.1051 -28.1145
rfingers 7.12502
rthumb 12.9919 -57.69
lclavicle -1.32689e-014 3.27995e-015
lhumerus -32.1661 -12.0075 92.5088
lradius 25.9268
lwrist -10.951
lhand -20.1218 -27.8687
lfingers 7.12502
lthumb 6.22219 2.01993
rfemur 6.61192 -6.94354 16.2202
rtibia 2.87006
rfoot -15.3483 -3.15537
rtoes -0.912178
lfemur 9.02969 3.57667 -19.0693
ltibia -1.47104
lfoot -11.2831 10.0186
ltoes -3.41555
51
root -28.1882 17.1253 0.996583 29.3035 86.2454 27.4503
lowerback 3.895 1.65076 -4.26868
upperback 0.865311 2.0364 -0.316719
thorax -1.42967 1.03846 1.96078
lowerneck -22.2404 3.06545 4.37764
upperneck 23.4018 3.65168 -2.57968
head 11.4409 1.76487 -1.07508
rclavicle 3.721e-015 -4.77083e-015
rhumerus -35.0903 6.01338 -89.1689
rradius 32.431
rwrist 1.2973
rhand -13.0758 -28.0801
rfingers 7.12502
rthumb 13.0201 -57.6537
lclavicle 3.721e-015 -4.77083e-015
lhumerus -32.2232 -12.0788 92.5522
lradius 25.958
lwrist -10.845
lhand -19.9977 -27.8286
lfingers 7.12502
lthumb 6.34208 2.05646
rfemur 6.58986 -6.88121 16.1983
rtibia 2.9389
rfoot -15.506 -3.17379
rtoes -0.476788
lfemur 8.99473 3.53881 -19.1238
ltibia -1.45699
lfoot -11.2543 10.0471
ltoes -3.74372
52
root -28.1879 17.1233 0.997197 28.0775 86.2362 26.1862
lowerback 3.82792 1.66825 -4.1988
upperback 0.864666 2.06578 -0.296198
thorax -1.39309 1.05205 1.94316
lowerneck -22.2613 3.07255 4.36142
upperneck 23.3861 3.65951 -2.55974
head 11.4385 1.76898 -1.06356
rclavicle 1.60208e-014 -1.49089e-015
rhumerus -35.0603 6.04649 -89.1657
rradius 32.408
rwrist 1.285
rhand -13.0502 -28.024
rfingers 7.12502
rthumb 13.0449 -57.5961
lclavicle 1.60208e-014 -1.49089e-015
lhumerus -32.2323 -12.1005 92.5727
lradius 25.9659
lwrist -10.8098
lhand -20.016 -27.8198
lfingers 7.12502
lthumb 6.32434 2.06574
rfemur 6.55211 -6.84341 16.3082
rtibia 3.03074
rfoot -15.567 -3.16197
rtoes -1.00897
lfemur 8.95622 3.65153 -19.006
ltibia -1.43207
lfoot -11.2922 9.96354
ltoes -3.6147
53
root -28.1887 17.1226 0.998389 27.8015 86.2173 25.9648
lowerback 3.86711 1.67902 -4.20236
upperback 0.894147 2.07921 -0.294353
thorax -1.38573 1.05837 1.94568
lowerneck -22.3228 3.0769 4.33584
upperneck 23.4125 3.65974 -2.51605
head 11.4587 1.77177 -1.04256
rclavicle 6.23066e-015 -1.04362e-014
rhumerus -35.0201 6.04943 -89.163
rradius 32.3802
rwrist 1.2933
rhand -13.0613 -27.9428
rfingers 7.12502
rthumb 13.0341 -57.5156
lclavicle 6.23066e-015 -1.04362e-014
lhumerus -32.2426 -12.0601 92.5476
lradius 26.0298
lwrist -10.8727
lhand -20.2623 -27.6993
lfingers 7.12502
lthumb 6.08654 2.19326
rfemur 6.62865 -6.77399 16.3243
rtibia 3.00062
rfoot -15.6126 -3.10521
rtoes -0.591425
lfemur 9.02362 3.82755 -18.9333
ltibia -1.43695
lfoot -11.3057 9.81282
ltoes -3.32808
54
root -28.1914 17.1232 0.998524 29.3771 86.2143 27.617
lowerback 3.98575 1.67451 -4.29678
upperback 0.910012 2.06407 -0.327222
thorax -1.43681 1.05218 1.96225
lowerneck -22.3457 3.06754 4.33146
upperneck 23.4159 3.64074 -2.49497
head 11.4631 1.76523 -1.03698
rclavicle 2.95071e-015 3.27995e-015
rhumerus -35.0153 6.04426 -89.1733
rradius 32.3895
rwrist 1.29147
rhand -13.0292 -27.9903
rfingers 7.12502
rthumb 13.065 -57.5611
lclavicle 2.95071e-015 3.27995e-015
lhumerus -32.1065 -12.1609 92.5737
lradius 25.8538
lwrist -10.8053
lhand -20.6679 -27.7162
lfingers 7.12502
lthumb 5.69498 2.18727
rfemur 6.73337 -6.72058 16.2011
rtibia 2.89203
rfoot -15.5689 -3.13264
rtoes -0.252448
lfemur 9.06586 3.92617 -19.0097
ltibia -1.40623
lfoot -11.2435 9.71723
ltoes -3.94867
55
root -28.1927 17.1234 0.997094 29.9031 86.2341 28.1565
lowerback 4.02868 1.66661 -4.28697
upperback 0.905603 2.05148 -0.351001
thorax -1.46331 1.04649 1.93169
lowerneck -22.3533 3.06855 4.36994
upperneck 23.4355 3.63374 -2.51148
head 11.4729 1.76354 -1.05052
rclavicle 4.70871e-015 -1.26228e-014
rhumerus -35.0065 6.04475 -89.2131
rradius 32.4015
rwrist 1.22674
rhand -13.0607 -28.2049
rfingers 7.12502
rthumb 13.0347 -57.7777
lclavicle 4.70871e-015 -1.26228e-014
lhumerus -32.0938 -12.1977 92.5729
lradius 25.8191
lwrist -10.8247
lhand -20.5735 -27.9161
lfingers 7.12502
lthumb 5.78618 1.98488
rfemur 6.7543 -6.6181 16.2072
rtibia 2.72501
rfoot -15.3509 -3.36803
rtoes -0.74729
lfemur 9.06621 3.88694 -19.0524
ltibia -1.39541
lfoot -11.2154 9.74757
ltoes -4.34569
56
root -28.1924 17.1225 0.996728 29.1094 86.2351 27.3624
lowerback 4.00293 1.66762 -4.2268
upperback 0.915205 2.0569 -0.345879
thorax -1.4375 1.04832 1.90396
lowerneck -22.388 3.12622 4.37975
upperneck 23.4029 3.68839 -2.44437
head 11.4682 1.79677 -1.018
rclavicle 1.4797e-014 6.75868e-015
rhumerus -34.97 6.00643 -89.2167
rradius 32.3647
rwrist 1.24554
rhand -13.0949 -28.2866
rfingers 7.12502
rthumb 13.0018 -57.8615
lclavicle 1.4797e-014 6.75868e-015
lhumerus -32.107 -12.129 92.536
lradius 25.8502
lwrist -10.92
lhand -20.361 -28.0378
lfingers 7.12502
lthumb 5.99126 1.85754
rfemur 6.74845 -6.51187 16.2995
rtibia 2.73124
rfoot -15.3748 -3.52838
rtoes -0.672258
lfemur 9.09724 3.70824 -19.0544
ltibia -1.43155
lfoot -11.2249 9.93309
ltoes -4.40102
57
root -28.1937 17.1218 0.998269 28.6971 86.2169 26.9518
lowerback 4.00006 1.67133 -4.2544
upperback 0.924266 2.06141 -0.321332
thorax -1.42871 1.05038 1.94462
lowerneck -22.3921 3.13874 4.38464
upperneck 23.4026 3.71385 -2.47881
head 11.4707 1.80407 -1.02729
rclavicle 5.71506e-016 6.36111e-015
rhumerus -34.9261 6.01413 -89.1904
rradius 32.3051
rwrist 1.30721
rhand -13.0554 -28.1632
rfingers 7.12502
rthumb 13.0398 -57.7356
lclavicle 5.71506e-016 6.36111e-015
lhumerus -32.153 -11.9971 92.5026
lradius 25.9758
lwrist -11.0052
lhand -20.5897 -27.9654
lfingers 7.12502
lthumb 5.77052 1.93602
rfemur 6.74627 -6.39205 16.3458
rtibia 2.89717
rfoot -15.6238 -3.53592
rtoes -0.236506
lfemur 9.0925 3.56906 -19.063
ltibia -1.43673
lfoot -11.2405 10.1025
ltoes -4.43393
58
root -28.1955 17.1218 0.999078 28.7263 86.2072 26.9632
lowerback 4.00611 1.67734 -4.30107
upperback 0.911965 2.06691 -0.30193
thorax -1.44746 1.05376 1.98991
lowerneck -22.4015 3.15089 4.38755
upperneck 23.4349 3.74131 -2.51388
head 11.4867 1.81237 -1.03605
rclavicle 7.15004e-015 -1.10325e-014
rhumerus -34.9764 6.08753 -89.1845
rradius 32.3467
rwrist 1.27335
rhand -13.0282 -28.1079
rfingers 7.12502
rthumb 13.066 -57.6786
lclavicle 7.15004e-015 -1.10325e-014
lhumerus -32.1006 -12.1614 92.5912
lradius 25.9086
lwrist -10.8071
lhand -20.9106 -27.9127
lfingers 7.12502
lthumb 5.46068 1.99696
rfemur 6.72156 -6.3306 16.3599
rtibia 2.97622
rfoot -15.7308 -3.51356
rtoes -0.305808
lfemur 9.05036 3.60399 -19.0521
ltibia -1.41711
lfoot -11.2528 10.0961
ltoes -4.27766
59
root -28.1949 17.1229 1.00104 29.8789 86.1059 28.063
lowerback 3.91508 1.68954 -4.48111
upperback 0.909411 2.08054 -0.303788
thorax -1.40625 1.06046 2.09052
lowerneck -22.368 3.16474 4.34778
upperneck 23.4223 3.77764 -2.51716
head 11.4761 1.82508 -1.025
rclavicle 2.10588e-014 -6.55989e-015
rhumerus -35.0124 6.14141 -89.1596
rradius 32.3954
rwrist 1.25042
rhand -13.043 -28.0822
rfingers 7.12502
rthumb 13.0517 -57.6539
lclavicle 2.10588e-014 -6.55989e-015
lhumerus -32.1158 -12.2396 92.6479
lradius 25.9591
lwrist -10.7129
lhand -20.9132 -27.8412
lfingers 7.12502
lthumb 5.45819 2.06849
rfemur 6.64462 -6.27051 16.2513
rtibia 2.94025
rfoot -15.6869 -3.5616
rtoes -0.653882
lfemur 8.99584 3.68125 -19.1592
ltibia -1.41363
lfoot -11.2925 10.0479
ltoes -4.01645
60
root -28.1959 17.1232 1.00334 31.6224 85.9967 29.7921
lowerback 3.88555 1.6855 -4.67252
upperback 0.915065 2.06935 -0.335898
thorax -1.38853 1.05528 2.16608
lowerneck -22.3289 3.14165 4.29821
upperneck 23.4049 3.76178 -2.50869
head 11.46 1.81498 -1.0167
rclavicle -1.07157e-014 -6.95746e-016
rhumerus -35.0093 6.12497 -89.1437
rradius 32.4135
rwrist 1.26705
rhand -13.0429 -28.001
rfingers 7.12502
rthumb 13.0518 -57.5727
lclavicle -1.07157e-014 -6.95746e-016
lhumerus -32.1277 -12.2688 92.6562
lradius 25.9917
lwrist -10.6603
lhand -21.6468 -27.9525
lfingers 7.12502
lthumb 4.74984 1.97429
rfemur 6.61659 -6.12017 16.0992
rtibia 2.89026
rfoot -15.6916 -3.67493
rtoes -0.480609
lfemur 8.95496 3.74683 -19.3117
ltibia -1.37757
lfoot -11.307 9.9843
ltoes -3.98619
61
root -28.198 17.122 1.001 31.0884 86.0911 29.3101
lowerback 3.98539 1.66455 -4.52157
upperback 0.911517 2.04185 -0.343761
thorax -1.44062 1.04214 2.07217
lowerneck -22.2907 3.13993 4.2784
upperneck 23.3823 3.7533 -2.45828
head 11.4423 1.81632 -0.996613
rclavicle 6.1002e-015 7.7526e-015
rhumerus -35.0101 6.03319 -89.1548
rradius 32.4116
rwrist 1.30229
rhand -12.9783 -27.9731
rfingers 7.12502
rthumb 13.1141 -57.5408
lclavicle 6.1002e-015 7.7526e-015
lhumerus -32.1217 -12.3759 92.6699
lradius 25.9539
lwrist -10.5547
lhand -20.6659 -27.8508
lfingers 7.12502
lthumb 5.69688 2.05261
rfemur 6.68974 -6.17593 16.1613
rtibia 2.89358
rfoot -15.756 -3.58623
rtoes 0.244193
lfemur 8.97788 3.81352 -19.2132
ltibia -1.33037
lfoot -11.2469 9.86948
ltoes -4.33239
